<svg width="20" height="20" viewBox="0 0 20 20" fill="none" xmlns="http://www.w3.org/2000/svg">
<path fill-rule="evenodd" clip-rule="evenodd" d="M5.32378 1H10.6762C10.9337 0.999983 11.1702 0.999966 11.3679 1.01612C11.581 1.03353 11.8142 1.07339 12.0445 1.19074C12.3738 1.35852 12.6415 1.62624 12.8093 1.95552C12.9266 2.18583 12.9665 2.419 12.9839 2.63213C13 2.82981 13 3.06629 13 3.32377L13 7L14.6762 7C14.9337 6.99998 15.1702 6.99997 15.3679 7.01612C15.581 7.03353 15.8142 7.07339 16.0445 7.19074C16.3738 7.35852 16.6415 7.62624 16.8093 7.95552C16.9266 8.18583 16.9665 8.419 16.9839 8.63213C17 8.82981 17 9.06629 17 9.32377L17 17.5H18.25C18.6642 17.5 19 17.8358 19 18.25C19 18.6642 18.6642 19 18.25 19H1.75C1.33579 19 1 18.6642 1 18.25C1 17.8358 1.33579 17.5 1.75 17.5H3V3.35C3 3.34124 3 3.3325 3 3.32379C2.99998 3.0663 2.99996 2.82982 3.01612 2.63213C3.03353 2.419 3.07339 2.18583 3.19074 1.95552C3.35852 1.62624 3.62623 1.35852 3.95552 1.19074C4.18582 1.07339 4.419 1.03353 4.63213 1.01612C4.82981 0.999966 5.0663 0.999983 5.32378 1ZM4.5 17.5H11.5V3.35C11.5 3.0576 11.4994 2.88341 11.4889 2.75428C11.4824 2.67547 11.4739 2.64234 11.4712 2.63346C11.4477 2.58882 11.4112 2.55235 11.3665 2.52883C11.3577 2.52607 11.3245 2.51757 11.2457 2.51114C11.1166 2.50059 10.9424 2.5 10.65 2.5H5.35C5.0576 2.5 4.8834 2.50059 4.75428 2.51114C4.67547 2.51757 4.64234 2.52607 4.63346 2.52883C4.58882 2.55235 4.55234 2.58883 4.52882 2.63346C4.52607 2.64234 4.51757 2.67547 4.51113 2.75428C4.50058 2.88341 4.5 3.0576 4.5 3.35V17.5ZM4.52973 2.63088C4.52974 2.63091 4.52956 2.63144 4.52917 2.63239ZM4.63087 2.52973C4.63085 2.52972 4.63132 2.52952 4.63239 2.52917ZM11.3691 2.52973C11.3691 2.52974 11.3686 2.52957 11.3676 2.52918ZM11.4703 2.63088C11.4703 2.63085 11.4705 2.63132 11.4708 2.63236ZM13 8.5V17.5H15.5V9.35C15.5 9.0576 15.4994 8.88341 15.4889 8.75428C15.4824 8.67547 15.4739 8.64235 15.4712 8.63347C15.4477 8.58883 15.4112 8.55235 15.3665 8.52883C15.3577 8.52607 15.3245 8.51757 15.2457 8.51114C15.1166 8.50059 14.9424 8.5 14.65 8.5H13ZM15.3691 8.52973C15.3691 8.52974 15.3686 8.52957 15.3676 8.52917ZM15.4703 8.63088C15.4703 8.63083 15.4705 8.63131 15.4708 8.6324ZM6 5.75C6 5.33579 6.33579 5 6.75 5H9.25C9.66421 5 10 5.33579 10 5.75C10 6.16422 9.66421 6.5 9.25 6.5H6.75C6.33579 6.5 6 6.16422 6 5.75ZM6 10C6 9.58579 6.33579 9.25 6.75 9.25H9.25C9.66421 9.25 10 9.58579 10 10C10 10.4142 9.66421 10.75 9.25 10.75H6.75C6.33579 10.75 6 10.4142 6 10ZM6 14.25C6 13.8358 6.33579 13.5 6.75 13.5H9.25C9.66421 13.5 10 13.8358 10 14.25C10 14.6642 9.66421 15 9.25 15H6.75C6.33579 15 6 14.6642 6 14.25Z" fill="#061D5C"/>
</svg>
